<mxfile host="65bd71144e" pages="2">
    <diagram name="Page-1" id="52a04d89-c75d-2922-d76d-85b35f80e030">
        <mxGraphModel dx="1413" dy="757" grid="1" gridSize="10" guides="1" tooltips="1" connect="1" arrows="0" fold="1" page="1" pageScale="1" pageWidth="1100" pageHeight="850" background="#ffffff" math="0" shadow="1">
            <root>
                <mxCell id="0"/>
                <mxCell id="1" parent="0"/>
                <mxCell id="CfUMpahbv_ZwyhBGr2wj-9" value="" style="edgeStyle=orthogonalEdgeStyle;rounded=0;orthogonalLoop=1;jettySize=auto;html=1;exitX=0.516;exitY=-0.029;exitDx=0;exitDy=0;exitPerimeter=0;entryX=0.449;entryY=0.991;entryDx=0;entryDy=0;entryPerimeter=0;strokeWidth=3;fillColor=#60a917;strokeColor=#BD7000;" parent="1" source="21ea969265ad0168-30" target="19" edge="1">
                    <mxGeometry relative="1" as="geometry">
                        <mxPoint x="527" y="482" as="sourcePoint"/>
                        <mxPoint x="530" y="432" as="targetPoint"/>
                    </mxGeometry>
                </mxCell>
                <mxCell id="21ea969265ad0168-30" value="&lt;b&gt;Output:&lt;br&gt;Persistent Corpus&lt;/b&gt;" style="html=1;rounded=0;shadow=0;comic=0;labelBackgroundColor=none;strokeWidth=2;fontFamily=Verdana;fontSize=12;align=center;shape=mxgraph.ios7ui.horLines;fillColor=#60A917;strokeColor=#FFB366;gradientColor=#FFB366;gradientDirection=north;" parent="1" vertex="1">
                    <mxGeometry x="431" y="512" width="190" height="70" as="geometry"/>
                </mxCell>
                <mxCell id="1fdf3b25b50cf41e-27" style="html=1;labelBackgroundColor=none;startFill=0;startSize=8;endFill=1;endSize=8;fontFamily=Verdana;fontSize=12;fillColor=#60a917;strokeColor=#2D7600;rounded=0;strokeWidth=3;" parent="1" source="17472293e6e8944d-30" target="1fdf3b25b50cf41e-1" edge="1">
                    <mxGeometry relative="1" as="geometry"/>
                </mxCell>
                <mxCell id="3" value="" style="edgeStyle=orthogonalEdgeStyle;html=1;startArrow=classic;startFill=1;endArrow=none;endFill=0;fillColor=#f0a30a;strokeColor=#BD7000;strokeWidth=3;entryX=-0.004;entryY=0.456;entryDx=0;entryDy=0;entryPerimeter=0;" parent="1" source="23" target="CfUMpahbv_ZwyhBGr2wj-11" edge="1">
                    <mxGeometry relative="1" as="geometry">
                        <mxPoint x="330" y="160" as="sourcePoint"/>
                        <Array as="points">
                            <mxPoint x="360" y="230"/>
                        </Array>
                    </mxGeometry>
                </mxCell>
                <mxCell id="24" style="edgeStyle=none;html=1;exitX=0;exitY=0.5;exitDx=0;exitDy=0;startArrow=classic;startFill=1;endArrow=none;endFill=0;strokeWidth=3;strokeColor=#2D7600;" edge="1" parent="1" source="17472293e6e8944d-30">
                    <mxGeometry relative="1" as="geometry">
                        <mxPoint x="400" y="116" as="targetPoint"/>
                    </mxGeometry>
                </mxCell>
                <mxCell id="17472293e6e8944d-30" value="User Query Data" style="whiteSpace=wrap;html=1;rounded=0;shadow=0;comic=0;labelBackgroundColor=none;strokeWidth=1;fontFamily=Verdana;fontSize=12;align=center;" parent="1" vertex="1">
                    <mxGeometry x="470" y="91" width="120" height="50" as="geometry"/>
                </mxCell>
                <mxCell id="1fdf3b25b50cf41e-38" style="edgeStyle=elbowEdgeStyle;html=1;labelBackgroundColor=none;startFill=0;startSize=8;endFill=1;endSize=8;fontFamily=Verdana;fontSize=12;rounded=0;exitX=0;exitY=0.5;exitDx=0;exitDy=0;strokeWidth=3;fillColor=#60a917;strokeColor=#2D7600;" parent="1" source="r-KkZK2zQZgvtkGGY7jv-22" target="5" edge="1">
                    <mxGeometry relative="1" as="geometry">
                        <Array as="points">
                            <mxPoint x="681" y="312"/>
                            <mxPoint x="561" y="332"/>
                            <mxPoint x="541" y="382"/>
                        </Array>
                        <mxPoint x="561" y="362" as="targetPoint"/>
                    </mxGeometry>
                </mxCell>
                <mxCell id="r-KkZK2zQZgvtkGGY7jv-23" style="edgeStyle=orthogonalEdgeStyle;rounded=0;orthogonalLoop=1;jettySize=auto;html=1;entryX=0.5;entryY=0;entryDx=0;entryDy=0;startArrow=none;startFill=0;endArrow=classic;endFill=1;strokeWidth=3;fillColor=#60a917;strokeColor=#2D7600;" parent="1" source="1fdf3b25b50cf41e-1" target="r-KkZK2zQZgvtkGGY7jv-21" edge="1">
                    <mxGeometry relative="1" as="geometry"/>
                </mxCell>
                <mxCell id="1fdf3b25b50cf41e-1" value="4. Send Query to Twitter" style="swimlane;html=1;fontStyle=0;childLayout=stackLayout;horizontal=1;startSize=26;fillColor=#60a917;horizontalStack=0;resizeParent=1;resizeLast=0;collapsible=1;marginBottom=0;swimlaneFillColor=#ffffff;align=center;rounded=1;shadow=0;comic=0;labelBackgroundColor=none;strokeWidth=1;fontFamily=Verdana;fontSize=12;strokeColor=#2D7600;fontColor=#ffffff;" parent="1" vertex="1">
                    <mxGeometry x="761" y="67" width="240" height="100" as="geometry"/>
                </mxCell>
                <mxCell id="r-KkZK2zQZgvtkGGY7jv-16" value="Use Twitter Client to retrieve tweets from Twitter API" style="text;html=1;strokeColor=none;fillColor=none;spacingLeft=4;spacingRight=4;whiteSpace=wrap;overflow=hidden;rotatable=0;points=[[0,0.5],[1,0.5]];portConstraint=eastwest;align=center;" parent="1fdf3b25b50cf41e-1" vertex="1">
                    <mxGeometry y="26" width="240" height="74" as="geometry"/>
                </mxCell>
                <mxCell id="r-KkZK2zQZgvtkGGY7jv-4" style="edgeStyle=orthogonalEdgeStyle;rounded=0;orthogonalLoop=1;jettySize=auto;html=1;entryX=0.5;entryY=0;entryDx=0;entryDy=0;strokeWidth=3;fillColor=#60a917;strokeColor=#2D7600;" parent="1" source="r-KkZK2zQZgvtkGGY7jv-1" target="r-KkZK2zQZgvtkGGY7jv-5" edge="1">
                    <mxGeometry relative="1" as="geometry">
                        <mxPoint x="951" y="597" as="targetPoint"/>
                    </mxGeometry>
                </mxCell>
                <mxCell id="r-KkZK2zQZgvtkGGY7jv-1" value="6. Sentiment Analysis on Tweets" style="swimlane;html=1;fontStyle=0;childLayout=stackLayout;horizontal=1;startSize=26;fillColor=#60a917;horizontalStack=0;resizeParent=1;resizeLast=0;collapsible=1;marginBottom=0;swimlaneFillColor=#ffffff;align=center;rounded=1;shadow=0;comic=0;labelBackgroundColor=none;strokeWidth=1;fontFamily=Verdana;fontSize=12;fontColor=#ffffff;strokeColor=#2D7600;" parent="1" vertex="1">
                    <mxGeometry x="831" y="442" width="240" height="100" as="geometry"/>
                </mxCell>
                <mxCell id="r-KkZK2zQZgvtkGGY7jv-7" value="Analyze Query Data using TextBlob" style="text;html=1;strokeColor=none;fillColor=none;spacingLeft=4;spacingRight=4;whiteSpace=wrap;overflow=hidden;rotatable=0;points=[[0,0.5],[1,0.5]];portConstraint=eastwest;align=center;" parent="r-KkZK2zQZgvtkGGY7jv-1" vertex="1">
                    <mxGeometry y="26" width="240" height="74" as="geometry"/>
                </mxCell>
                <mxCell id="r-KkZK2zQZgvtkGGY7jv-5" value="7. Return Tweets by&lt;br&gt;Source/Sentiment" style="swimlane;html=1;fontStyle=0;childLayout=stackLayout;horizontal=1;startSize=26;fillColor=#60a917;horizontalStack=0;resizeParent=1;resizeLast=0;collapsible=1;marginBottom=0;swimlaneFillColor=#ffffff;align=center;rounded=1;shadow=0;comic=0;labelBackgroundColor=none;strokeWidth=1;fontFamily=Verdana;fontSize=12;fontColor=#ffffff;strokeColor=#2D7600;" parent="1" vertex="1">
                    <mxGeometry x="831" y="592" width="240" height="105" as="geometry"/>
                </mxCell>
                <mxCell id="r-KkZK2zQZgvtkGGY7jv-6" value="Sort twitter responses by source and display the sentiment judgement for each tweet retrieved using the query submitted by the human" style="text;html=1;strokeColor=none;fillColor=none;spacingLeft=4;spacingRight=4;whiteSpace=wrap;overflow=hidden;rotatable=0;points=[[0,0.5],[1,0.5]];portConstraint=eastwest;align=center;" parent="r-KkZK2zQZgvtkGGY7jv-5" vertex="1">
                    <mxGeometry y="26" width="240" height="74" as="geometry"/>
                </mxCell>
                <mxCell id="r-KkZK2zQZgvtkGGY7jv-24" style="edgeStyle=elbowEdgeStyle;rounded=0;orthogonalLoop=1;jettySize=auto;html=1;entryX=0.5;entryY=0;entryDx=0;entryDy=0;startArrow=none;startFill=0;endArrow=classic;endFill=1;strokeWidth=3;fillColor=#60a917;strokeColor=#2D7600;" parent="1" source="r-KkZK2zQZgvtkGGY7jv-21" target="r-KkZK2zQZgvtkGGY7jv-1" edge="1">
                    <mxGeometry relative="1" as="geometry"/>
                </mxCell>
                <mxCell id="r-KkZK2zQZgvtkGGY7jv-21" value="5. Store Tweets in memory" style="swimlane;html=1;fontStyle=0;childLayout=stackLayout;horizontal=1;startSize=26;fillColor=#60a917;horizontalStack=0;resizeParent=1;resizeLast=0;collapsible=1;marginBottom=0;swimlaneFillColor=#ffffff;align=center;rounded=1;shadow=0;comic=0;labelBackgroundColor=none;strokeWidth=1;fontFamily=Verdana;fontSize=12;fontColor=#ffffff;strokeColor=#2D7600;" parent="1" vertex="1">
                    <mxGeometry x="761" y="222" width="240" height="100" as="geometry"/>
                </mxCell>
                <mxCell id="r-KkZK2zQZgvtkGGY7jv-22" value="Store data within python objects" style="text;html=1;strokeColor=none;fillColor=none;spacingLeft=4;spacingRight=4;whiteSpace=wrap;overflow=hidden;rotatable=0;points=[[0,0.5],[1,0.5]];portConstraint=eastwest;align=center;" parent="r-KkZK2zQZgvtkGGY7jv-21" vertex="1">
                    <mxGeometry y="26" width="240" height="74" as="geometry"/>
                </mxCell>
                <mxCell id="CfUMpahbv_ZwyhBGr2wj-12" style="edgeStyle=orthogonalEdgeStyle;rounded=0;orthogonalLoop=1;jettySize=auto;html=1;entryX=0.489;entryY=0.986;entryDx=0;entryDy=0;entryPerimeter=0;exitX=0.45;exitY=-0.015;exitDx=0;exitDy=0;exitPerimeter=0;fillColor=#f0a30a;strokeColor=#BD7000;strokeWidth=3;" parent="1" source="CfUMpahbv_ZwyhBGr2wj-5" target="CfUMpahbv_ZwyhBGr2wj-11" edge="1">
                    <mxGeometry relative="1" as="geometry"/>
                </mxCell>
                <mxCell id="CfUMpahbv_ZwyhBGr2wj-5" value="3. Present &quot;Trending&quot; Topics" style="swimlane;html=1;fontStyle=0;childLayout=stackLayout;horizontal=1;startSize=26;fillColor=#FFB366;horizontalStack=0;resizeParent=1;resizeLast=0;collapsible=1;marginBottom=0;swimlaneFillColor=#ffffff;align=center;rounded=1;shadow=0;comic=0;labelBackgroundColor=none;strokeWidth=1;fontFamily=Verdana;fontSize=12;strokeColor=#82B366;gradientColor=#60A917;" parent="1" vertex="1">
                    <mxGeometry x="421" y="322" width="240" height="100" as="geometry"/>
                </mxCell>
                <mxCell id="CfUMpahbv_ZwyhBGr2wj-6" value="Present trending topics to the human as &quot;Recommended&quot; search queries (based on recent news tweets and user queries), along with source filters and text input field" style="text;html=1;strokeColor=none;fillColor=none;spacingLeft=4;spacingRight=4;whiteSpace=wrap;overflow=hidden;rotatable=0;points=[[0,0.5],[1,0.5]];portConstraint=eastwest;align=center;" parent="CfUMpahbv_ZwyhBGr2wj-5" vertex="1">
                    <mxGeometry y="26" width="240" height="74" as="geometry"/>
                </mxCell>
                <mxCell id="CfUMpahbv_ZwyhBGr2wj-11" value="&lt;b&gt;Output/Input:&lt;br&gt;Trending Topics&lt;br&gt;on Home Page&lt;/b&gt;" style="html=1;rounded=0;shadow=0;comic=0;labelBackgroundColor=none;strokeWidth=2;fontFamily=Verdana;fontSize=12;align=center;shape=mxgraph.ios7ui.horLines;fillColor=#FFB366;strokeColor=#d79b00;gradientColor=#60A917;" parent="1" vertex="1">
                    <mxGeometry x="436" y="198" width="190" height="70" as="geometry"/>
                </mxCell>
                <mxCell id="6" value="" style="edgeStyle=orthogonalEdgeStyle;html=1;strokeWidth=3;fillColor=#60a917;strokeColor=#2D7600;" parent="1" source="4" target="21ea969265ad0168-30" edge="1">
                    <mxGeometry relative="1" as="geometry"/>
                </mxCell>
                <mxCell id="21" value="Filter out query terms&lt;br&gt;so that trends are not&lt;br&gt;the query terms themselves" style="edgeLabel;html=1;align=center;verticalAlign=middle;resizable=0;points=[];labelBorderColor=default;labelBackgroundColor=#FFB366;" parent="6" vertex="1" connectable="0">
                    <mxGeometry x="-0.1949" y="-2" relative="1" as="geometry">
                        <mxPoint x="-87" y="-174" as="offset"/>
                    </mxGeometry>
                </mxCell>
                <mxCell id="4" value="&lt;font color=&quot;#ffffff&quot;&gt;8. Build Persistent Corpus&lt;/font&gt;" style="swimlane;html=1;fontStyle=0;childLayout=stackLayout;horizontal=1;startSize=26;fillColor=#60A917;horizontalStack=0;resizeParent=1;resizeLast=0;collapsible=1;marginBottom=0;swimlaneFillColor=#ffffff;align=center;rounded=1;shadow=0;comic=0;labelBackgroundColor=none;strokeWidth=1;fontFamily=Verdana;fontSize=12;strokeColor=#82b366;" parent="1" vertex="1">
                    <mxGeometry x="406" y="683" width="240" height="100" as="geometry"/>
                </mxCell>
                <mxCell id="5" value="&lt;span style=&quot;font-family: &amp;#34;verdana&amp;#34;&quot;&gt;Persist data in text&amp;nbsp;&lt;/span&gt;&lt;span style=&quot;font-family: &amp;#34;verdana&amp;#34;&quot;&gt;document or database. Append each tweet onto Corpus&lt;/span&gt;" style="text;html=1;strokeColor=none;fillColor=none;spacingLeft=4;spacingRight=4;whiteSpace=wrap;overflow=hidden;rotatable=0;points=[[0,0.5],[1,0.5]];portConstraint=eastwest;align=center;" parent="4" vertex="1">
                    <mxGeometry y="26" width="240" height="74" as="geometry"/>
                </mxCell>
                <mxCell id="17" value="" style="edgeStyle=orthogonalEdgeStyle;html=1;rounded=0;entryX=0;entryY=0.595;entryDx=0;entryDy=0;entryPerimeter=0;fillColor=#f0a30a;strokeColor=#BD7000;strokeWidth=3;" parent="1" source="9" target="21ea969265ad0168-30" edge="1">
                    <mxGeometry relative="1" as="geometry"/>
                </mxCell>
                <mxCell id="22" value="Prevents&lt;br&gt;overfitting&lt;br&gt;on terms&lt;br&gt;&lt;b&gt;related&lt;/b&gt; to&lt;br&gt;past queries" style="edgeLabel;html=1;align=center;verticalAlign=middle;resizable=0;points=[];labelBorderColor=default;labelBackgroundColor=#FFB366;" parent="17" vertex="1" connectable="0">
                    <mxGeometry x="-0.1878" relative="1" as="geometry">
                        <mxPoint as="offset"/>
                    </mxGeometry>
                </mxCell>
                <mxCell id="9" value="1. Get Trending Topics in the News" style="swimlane;html=1;fontStyle=0;childLayout=stackLayout;horizontal=1;startSize=26;fillColor=#FFB366;horizontalStack=0;resizeParent=1;resizeLast=0;collapsible=1;marginBottom=0;swimlaneFillColor=#ffffff;align=center;rounded=1;shadow=0;comic=0;labelBackgroundColor=none;strokeWidth=1;fontFamily=Verdana;fontSize=12;strokeColor=#d79b00;" parent="1" vertex="1">
                    <mxGeometry x="30" y="503" width="240" height="100" as="geometry"/>
                </mxCell>
                <mxCell id="10" value="Get the 20 most recent tweets for all of the 6 news sources and run the topic modeling algorithm against it" style="text;html=1;strokeColor=none;fillColor=none;spacingLeft=4;spacingRight=4;whiteSpace=wrap;overflow=hidden;rotatable=0;points=[[0,0.5],[1,0.5]];portConstraint=eastwest;align=center;" parent="9" vertex="1">
                    <mxGeometry y="26" width="240" height="74" as="geometry"/>
                </mxCell>
                <mxCell id="20" value="" style="edgeStyle=orthogonalEdgeStyle;html=1;rounded=0;strokeWidth=3;fillColor=#60a917;strokeColor=#2D7600;" parent="1" source="18" target="CfUMpahbv_ZwyhBGr2wj-6" edge="1">
                    <mxGeometry relative="1" as="geometry"/>
                </mxCell>
                <mxCell id="18" value="&lt;font color=&quot;#ffffff&quot;&gt;2. PLSA Algorithm&lt;/font&gt;" style="swimlane;html=1;fontStyle=0;childLayout=stackLayout;horizontal=1;startSize=26;fillColor=#60A917;horizontalStack=0;resizeParent=1;resizeLast=0;collapsible=1;marginBottom=0;swimlaneFillColor=#ffffff;align=center;rounded=1;shadow=0;comic=0;labelBackgroundColor=none;strokeWidth=1;fontFamily=Verdana;fontSize=12;strokeColor=#82B366;" parent="1" vertex="1">
                    <mxGeometry x="34" y="335" width="240" height="100" as="geometry"/>
                </mxCell>
                <mxCell id="19" value="Use PLSA to define trending topics based on a random selection of 50 documents (for performance)&amp;nbsp;within the corpus." style="text;html=1;strokeColor=none;fillColor=none;spacingLeft=4;spacingRight=4;whiteSpace=wrap;overflow=hidden;rotatable=0;points=[[0,0.5],[1,0.5]];portConstraint=eastwest;align=center;" parent="18" vertex="1">
                    <mxGeometry y="26" width="240" height="74" as="geometry"/>
                </mxCell>
                <mxCell id="23" value="" style="sketch=0;outlineConnect=0;fontColor=#232F3E;gradientColor=none;fillColor=#232F3D;strokeColor=none;dashed=0;verticalLabelPosition=bottom;verticalAlign=top;align=center;html=1;fontSize=12;fontStyle=0;aspect=fixed;pointerEvents=1;shape=mxgraph.aws4.user;" vertex="1" parent="1">
                    <mxGeometry x="321" y="67" width="78" height="78" as="geometry"/>
                </mxCell>
                <mxCell id="26" style="edgeStyle=orthogonalEdgeStyle;html=1;startArrow=none;startFill=0;endArrow=classic;endFill=1;strokeColor=#2D7600;strokeWidth=3;" edge="1" parent="1" target="23">
                    <mxGeometry relative="1" as="geometry">
                        <mxPoint x="951" y="700" as="sourcePoint"/>
                        <Array as="points">
                            <mxPoint x="951" y="820"/>
                            <mxPoint x="10" y="820"/>
                            <mxPoint x="10" y="120"/>
                        </Array>
                    </mxGeometry>
                </mxCell>
            </root>
        </mxGraphModel>
    </diagram>
    <diagram id="gRCE2eUKERkvzfVBNQBJ" name="Page-2">
        <mxGraphModel dx="1333" dy="816" grid="1" gridSize="10" guides="1" tooltips="1" connect="1" arrows="1" fold="1" page="1" pageScale="1" pageWidth="850" pageHeight="1100" math="0" shadow="0">
            <root>
                <mxCell id="0"/>
                <mxCell id="1" parent="0"/>
                <mxCell id="kDjDkeuDUiAfNkpIwVVC-56" style="edgeStyle=orthogonalEdgeStyle;rounded=0;orthogonalLoop=1;jettySize=auto;html=1;entryX=1;entryY=0.5;entryDx=0;entryDy=0;" edge="1" parent="1" source="kDjDkeuDUiAfNkpIwVVC-2" target="kDjDkeuDUiAfNkpIwVVC-50">
                    <mxGeometry relative="1" as="geometry"/>
                </mxCell>
                <mxCell id="kDjDkeuDUiAfNkpIwVVC-2" value="Output:&lt;br&gt;Clingo Logs" style="html=1;rounded=0;shadow=0;comic=0;labelBackgroundColor=none;strokeWidth=2;fontFamily=Verdana;fontSize=12;align=center;shape=mxgraph.ios7ui.horLines;" vertex="1" parent="1">
                    <mxGeometry x="620" y="403" width="135" height="50" as="geometry"/>
                </mxCell>
                <mxCell id="kDjDkeuDUiAfNkpIwVVC-3" style="edgeStyle=none;html=1;labelBackgroundColor=none;startFill=0;startSize=8;endFill=1;endSize=8;fontFamily=Verdana;fontSize=12;" edge="1" parent="1" source="kDjDkeuDUiAfNkpIwVVC-4" target="kDjDkeuDUiAfNkpIwVVC-7">
                    <mxGeometry relative="1" as="geometry"/>
                </mxCell>
                <mxCell id="kDjDkeuDUiAfNkpIwVVC-4" value="Input:&lt;br&gt;PPP Loan Data (Unclean)" style="whiteSpace=wrap;html=1;rounded=0;shadow=0;comic=0;labelBackgroundColor=none;strokeWidth=1;fontFamily=Verdana;fontSize=12;align=center;" vertex="1" parent="1">
                    <mxGeometry x="200" y="44" width="120" height="50" as="geometry"/>
                </mxCell>
                <mxCell id="kDjDkeuDUiAfNkpIwVVC-5" style="edgeStyle=none;html=1;labelBackgroundColor=none;startFill=0;startSize=8;endFill=1;endSize=8;fontFamily=Verdana;fontSize=12;entryX=0.413;entryY=0.003;entryDx=0;entryDy=0;entryPerimeter=0;" edge="1" parent="1" source="kDjDkeuDUiAfNkpIwVVC-7" target="kDjDkeuDUiAfNkpIwVVC-32">
                    <mxGeometry relative="1" as="geometry">
                        <mxPoint x="500" y="169.9999999999999" as="targetPoint"/>
                    </mxGeometry>
                </mxCell>
                <mxCell id="kDjDkeuDUiAfNkpIwVVC-7" value="Data Profiling" style="swimlane;html=1;fontStyle=0;childLayout=stackLayout;horizontal=1;startSize=26;fillColor=#e0e0e0;horizontalStack=0;resizeParent=1;resizeLast=0;collapsible=1;marginBottom=0;swimlaneFillColor=#ffffff;align=center;rounded=1;shadow=0;comic=0;labelBackgroundColor=none;strokeWidth=1;fontFamily=Verdana;fontSize=12" vertex="1" parent="1">
                    <mxGeometry x="425" y="31" width="150" height="76" as="geometry"/>
                </mxCell>
                <mxCell id="kDjDkeuDUiAfNkpIwVVC-8" value="OpenRefine and Splunk for visualization" style="text;html=1;strokeColor=none;fillColor=none;spacingLeft=4;spacingRight=4;whiteSpace=wrap;overflow=hidden;rotatable=0;points=[[0,0.5],[1,0.5]];portConstraint=eastwest;align=center;" vertex="1" parent="kDjDkeuDUiAfNkpIwVVC-7">
                    <mxGeometry y="26" width="150" height="50" as="geometry"/>
                </mxCell>
                <mxCell id="kDjDkeuDUiAfNkpIwVVC-59" style="edgeStyle=orthogonalEdgeStyle;rounded=0;orthogonalLoop=1;jettySize=auto;html=1;entryX=0.279;entryY=-0.019;entryDx=0;entryDy=0;entryPerimeter=0;" edge="1" parent="1" source="kDjDkeuDUiAfNkpIwVVC-9" target="kDjDkeuDUiAfNkpIwVVC-49">
                    <mxGeometry relative="1" as="geometry">
                        <Array as="points">
                            <mxPoint x="527" y="493"/>
                        </Array>
                    </mxGeometry>
                </mxCell>
                <mxCell id="kDjDkeuDUiAfNkpIwVVC-9" value="Output:&lt;br&gt;Clean PPP Loan Data" style="html=1;rounded=0;shadow=0;comic=0;labelBackgroundColor=none;strokeWidth=2;fontFamily=Verdana;fontSize=12;align=center;shape=mxgraph.ios7ui.horLines;" vertex="1" parent="1">
                    <mxGeometry x="430" y="403" width="135" height="50" as="geometry"/>
                </mxCell>
                <mxCell id="kDjDkeuDUiAfNkpIwVVC-58" style="edgeStyle=orthogonalEdgeStyle;rounded=0;orthogonalLoop=1;jettySize=auto;html=1;entryX=0.644;entryY=0.003;entryDx=0;entryDy=0;entryPerimeter=0;" edge="1" parent="1" source="kDjDkeuDUiAfNkpIwVVC-24" target="kDjDkeuDUiAfNkpIwVVC-9">
                    <mxGeometry relative="1" as="geometry"/>
                </mxCell>
                <mxCell id="kDjDkeuDUiAfNkpIwVVC-60" style="edgeStyle=orthogonalEdgeStyle;rounded=0;orthogonalLoop=1;jettySize=auto;html=1;entryX=0.518;entryY=-0.049;entryDx=0;entryDy=0;entryPerimeter=0;" edge="1" parent="1" source="kDjDkeuDUiAfNkpIwVVC-24" target="kDjDkeuDUiAfNkpIwVVC-2">
                    <mxGeometry relative="1" as="geometry">
                        <Array as="points">
                            <mxPoint x="690" y="333"/>
                        </Array>
                    </mxGeometry>
                </mxCell>
                <mxCell id="kDjDkeuDUiAfNkpIwVVC-63" style="edgeStyle=orthogonalEdgeStyle;rounded=0;orthogonalLoop=1;jettySize=auto;html=1;entryX=0.266;entryY=0.999;entryDx=0;entryDy=0;entryPerimeter=0;" edge="1" parent="1" source="kDjDkeuDUiAfNkpIwVVC-24" target="kDjDkeuDUiAfNkpIwVVC-33">
                    <mxGeometry relative="1" as="geometry">
                        <Array as="points">
                            <mxPoint x="479" y="246"/>
                        </Array>
                    </mxGeometry>
                </mxCell>
                <mxCell id="kDjDkeuDUiAfNkpIwVVC-24" value="ICV Checks" style="swimlane;html=1;fontStyle=0;childLayout=stackLayout;horizontal=1;startSize=26;fillColor=#e0e0e0;horizontalStack=0;resizeParent=1;resizeLast=0;collapsible=1;marginBottom=0;swimlaneFillColor=#ffffff;align=center;rounded=1;shadow=0;comic=0;labelBackgroundColor=none;strokeWidth=1;fontFamily=Verdana;fontSize=12" vertex="1" parent="1">
                    <mxGeometry x="425" y="273" width="185" height="77" as="geometry"/>
                </mxCell>
                <mxCell id="kDjDkeuDUiAfNkpIwVVC-25" value="SQLite, Splunk, Python, Datalog" style="text;html=1;strokeColor=none;fillColor=none;spacingLeft=4;spacingRight=4;whiteSpace=wrap;overflow=hidden;rotatable=0;points=[[0,0.5],[1,0.5]];portConstraint=eastwest;align=center;" vertex="1" parent="kDjDkeuDUiAfNkpIwVVC-24">
                    <mxGeometry y="26" width="185" height="26" as="geometry"/>
                </mxCell>
                <mxCell id="kDjDkeuDUiAfNkpIwVVC-62" style="edgeStyle=orthogonalEdgeStyle;rounded=0;orthogonalLoop=1;jettySize=auto;html=1;entryX=0.75;entryY=0;entryDx=0;entryDy=0;" edge="1" parent="1" source="kDjDkeuDUiAfNkpIwVVC-32" target="kDjDkeuDUiAfNkpIwVVC-24">
                    <mxGeometry relative="1" as="geometry">
                        <Array as="points">
                            <mxPoint x="564" y="243"/>
                            <mxPoint x="564" y="243"/>
                        </Array>
                    </mxGeometry>
                </mxCell>
                <mxCell id="kDjDkeuDUiAfNkpIwVVC-32" value="Data Cleaning" style="swimlane;html=1;fontStyle=0;childLayout=stackLayout;horizontal=1;startSize=26;fillColor=#e0e0e0;horizontalStack=0;resizeParent=1;resizeLast=0;collapsible=1;marginBottom=0;swimlaneFillColor=#ffffff;align=center;rounded=1;shadow=0;comic=0;labelBackgroundColor=none;strokeWidth=1;fontFamily=Verdana;fontSize=12" vertex="1" parent="1">
                    <mxGeometry x="440" y="150" width="145" height="68" as="geometry"/>
                </mxCell>
                <mxCell id="kDjDkeuDUiAfNkpIwVVC-33" value="OpenRefine" style="text;html=1;strokeColor=none;fillColor=none;spacingLeft=4;spacingRight=4;whiteSpace=wrap;overflow=hidden;rotatable=0;points=[[0,0.5],[1,0.5]];portConstraint=eastwest;align=center;" vertex="1" parent="kDjDkeuDUiAfNkpIwVVC-32">
                    <mxGeometry y="26" width="145" height="42" as="geometry"/>
                </mxCell>
                <mxCell id="kDjDkeuDUiAfNkpIwVVC-45" value="Output:&lt;br&gt;Phase 1 Report" style="html=1;rounded=0;shadow=0;comic=0;labelBackgroundColor=none;strokeWidth=2;fontFamily=Verdana;fontSize=12;align=center;shape=mxgraph.ios7ui.horLines;" vertex="1" parent="1">
                    <mxGeometry x="665" y="44" width="135" height="50" as="geometry"/>
                </mxCell>
                <mxCell id="kDjDkeuDUiAfNkpIwVVC-46" style="edgeStyle=orthogonalEdgeStyle;rounded=0;orthogonalLoop=1;jettySize=auto;html=1;entryX=-0.003;entryY=0.577;entryDx=0;entryDy=0;entryPerimeter=0;" edge="1" parent="1" source="kDjDkeuDUiAfNkpIwVVC-8" target="kDjDkeuDUiAfNkpIwVVC-45">
                    <mxGeometry relative="1" as="geometry">
                        <Array as="points">
                            <mxPoint x="600" y="73"/>
                            <mxPoint x="600" y="73"/>
                        </Array>
                    </mxGeometry>
                </mxCell>
                <mxCell id="kDjDkeuDUiAfNkpIwVVC-57" style="edgeStyle=orthogonalEdgeStyle;rounded=0;orthogonalLoop=1;jettySize=auto;html=1;entryX=0.517;entryY=0;entryDx=0;entryDy=0;entryPerimeter=0;" edge="1" parent="1" source="kDjDkeuDUiAfNkpIwVVC-49" target="kDjDkeuDUiAfNkpIwVVC-53">
                    <mxGeometry relative="1" as="geometry"/>
                </mxCell>
                <mxCell id="kDjDkeuDUiAfNkpIwVVC-49" value="Consolidate Outputs" style="swimlane;html=1;fontStyle=0;childLayout=stackLayout;horizontal=1;startSize=26;fillColor=#e0e0e0;horizontalStack=0;resizeParent=1;resizeLast=0;collapsible=1;marginBottom=0;swimlaneFillColor=#ffffff;align=center;rounded=1;shadow=0;comic=0;labelBackgroundColor=none;strokeWidth=1;fontFamily=Verdana;fontSize=12" vertex="1" parent="1">
                    <mxGeometry x="475" y="533" width="185" height="80" as="geometry"/>
                </mxCell>
                <mxCell id="kDjDkeuDUiAfNkpIwVVC-50" value="Microsoft Word, 7zip" style="text;html=1;strokeColor=none;fillColor=none;spacingLeft=4;spacingRight=4;whiteSpace=wrap;overflow=hidden;rotatable=0;points=[[0,0.5],[1,0.5]];portConstraint=eastwest;align=center;" vertex="1" parent="kDjDkeuDUiAfNkpIwVVC-49">
                    <mxGeometry y="26" width="185" height="54" as="geometry"/>
                </mxCell>
                <mxCell id="kDjDkeuDUiAfNkpIwVVC-53" value="Output:&lt;br&gt;Phase 2 Report&lt;br&gt;and Supporting Material" style="html=1;rounded=0;shadow=0;comic=0;labelBackgroundColor=none;strokeWidth=2;fontFamily=Verdana;fontSize=12;align=center;shape=mxgraph.ios7ui.horLines;" vertex="1" parent="1">
                    <mxGeometry x="490" y="693" width="150" height="60" as="geometry"/>
                </mxCell>
            </root>
        </mxGraphModel>
    </diagram>
</mxfile>